<mxfile host="app.diagrams.net" agent="Mozilla/5.0 (Macintosh; Intel Mac OS X 10_15_7) AppleWebKit/537.36 (KHTML, like Gecko) Chrome/138.0.0.0 Safari/537.36" version="28.0.7">
  <diagram name="Page-1" id="dhsnc0jmd0DqpvQ9MpPu">
    <mxGraphModel dx="1773" dy="1901" grid="1" gridSize="10" guides="1" tooltips="1" connect="1" arrows="1" fold="1" page="1" pageScale="1" pageWidth="827" pageHeight="1169" math="0" shadow="0">
      <root>
        <mxCell id="0" />
        <mxCell id="1" parent="0" />
        <mxCell id="g0_gdnNmpu5xlJmuGTU--16" style="edgeStyle=orthogonalEdgeStyle;rounded=0;orthogonalLoop=1;jettySize=auto;html=1;exitX=1;exitY=0.5;exitDx=0;exitDy=0;entryX=0;entryY=0.25;entryDx=0;entryDy=0;" edge="1" parent="1" source="g0_gdnNmpu5xlJmuGTU--1" target="g0_gdnNmpu5xlJmuGTU--15">
          <mxGeometry relative="1" as="geometry" />
        </mxCell>
        <mxCell id="g0_gdnNmpu5xlJmuGTU--1" value="Text Input" style="shape=parallelogram;html=1;strokeWidth=2;perimeter=parallelogramPerimeter;whiteSpace=wrap;rounded=1;arcSize=12;size=0.23;fontSize=15;" vertex="1" parent="1">
          <mxGeometry x="-440" y="290" width="140" height="60" as="geometry" />
        </mxCell>
        <mxCell id="g0_gdnNmpu5xlJmuGTU--14" style="edgeStyle=orthogonalEdgeStyle;rounded=0;orthogonalLoop=1;jettySize=auto;html=1;exitX=1;exitY=0.5;exitDx=0;exitDy=0;entryX=0;entryY=0.5;entryDx=0;entryDy=0;" edge="1" parent="1" source="g0_gdnNmpu5xlJmuGTU--2" target="g0_gdnNmpu5xlJmuGTU--13">
          <mxGeometry relative="1" as="geometry" />
        </mxCell>
        <mxCell id="g0_gdnNmpu5xlJmuGTU--65" value="" style="edgeStyle=orthogonalEdgeStyle;rounded=0;orthogonalLoop=1;jettySize=auto;html=1;" edge="1" parent="1" source="g0_gdnNmpu5xlJmuGTU--2" target="g0_gdnNmpu5xlJmuGTU--13">
          <mxGeometry relative="1" as="geometry" />
        </mxCell>
        <mxCell id="g0_gdnNmpu5xlJmuGTU--2" value="Voice Input" style="shape=parallelogram;html=1;strokeWidth=2;perimeter=parallelogramPerimeter;whiteSpace=wrap;rounded=1;arcSize=12;size=0.23;fontSize=15;" vertex="1" parent="1">
          <mxGeometry x="-440" y="380" width="140" height="60" as="geometry" />
        </mxCell>
        <mxCell id="g0_gdnNmpu5xlJmuGTU--11" style="edgeStyle=orthogonalEdgeStyle;rounded=0;orthogonalLoop=1;jettySize=auto;html=1;exitX=1;exitY=0.5;exitDx=0;exitDy=0;entryX=0;entryY=0.5;entryDx=0;entryDy=0;" edge="1" parent="1" source="g0_gdnNmpu5xlJmuGTU--3" target="g0_gdnNmpu5xlJmuGTU--4">
          <mxGeometry relative="1" as="geometry" />
        </mxCell>
        <mxCell id="g0_gdnNmpu5xlJmuGTU--3" value="PDF Upload" style="shape=parallelogram;html=1;strokeWidth=2;perimeter=parallelogramPerimeter;whiteSpace=wrap;rounded=1;arcSize=12;size=0.23;fontSize=15;" vertex="1" parent="1">
          <mxGeometry x="30" y="90" width="140" height="60" as="geometry" />
        </mxCell>
        <mxCell id="g0_gdnNmpu5xlJmuGTU--4" value="&lt;font style=&quot;font-size: 15px;&quot;&gt;RAG Pipe&lt;/font&gt;" style="rounded=1;whiteSpace=wrap;html=1;absoluteArcSize=1;arcSize=14;strokeWidth=2;" vertex="1" parent="1">
          <mxGeometry x="200" y="90" width="120" height="60" as="geometry" />
        </mxCell>
        <mxCell id="g0_gdnNmpu5xlJmuGTU--29" style="edgeStyle=orthogonalEdgeStyle;rounded=0;orthogonalLoop=1;jettySize=auto;html=1;exitX=0.5;exitY=1;exitDx=0;exitDy=0;exitPerimeter=0;entryX=0.5;entryY=0;entryDx=0;entryDy=0;" edge="1" parent="1" source="g0_gdnNmpu5xlJmuGTU--6" target="g0_gdnNmpu5xlJmuGTU--28">
          <mxGeometry relative="1" as="geometry">
            <Array as="points">
              <mxPoint x="445" y="190" />
              <mxPoint x="518" y="190" />
            </Array>
          </mxGeometry>
        </mxCell>
        <mxCell id="g0_gdnNmpu5xlJmuGTU--6" value="&lt;div&gt;&lt;font style=&quot;font-size: 15px;&quot;&gt;&lt;br&gt;&lt;/font&gt;&lt;/div&gt;&lt;font style=&quot;font-size: 15px;&quot;&gt;ChromaDB VectorStore&lt;/font&gt;&lt;div&gt;&lt;font style=&quot;font-size: 15px;&quot;&gt;On-Disk / In-Memory&lt;/font&gt;&lt;/div&gt;" style="strokeWidth=2;html=1;shape=mxgraph.flowchart.database;whiteSpace=wrap;" vertex="1" parent="1">
          <mxGeometry x="360" y="75" width="170" height="90" as="geometry" />
        </mxCell>
        <mxCell id="g0_gdnNmpu5xlJmuGTU--58" style="edgeStyle=orthogonalEdgeStyle;rounded=0;orthogonalLoop=1;jettySize=auto;html=1;exitX=1;exitY=0.5;exitDx=0;exitDy=0;exitPerimeter=0;" edge="1" parent="1" source="g0_gdnNmpu5xlJmuGTU--7" target="g0_gdnNmpu5xlJmuGTU--56">
          <mxGeometry relative="1" as="geometry" />
        </mxCell>
        <mxCell id="g0_gdnNmpu5xlJmuGTU--7" value="&lt;font style=&quot;font-size: 15px;&quot;&gt;PDF Document&lt;/font&gt;" style="strokeWidth=2;html=1;shape=mxgraph.flowchart.document2;whiteSpace=wrap;size=0.25;" vertex="1" parent="1">
          <mxGeometry x="-270" y="85" width="110" height="70" as="geometry" />
        </mxCell>
        <mxCell id="g0_gdnNmpu5xlJmuGTU--12" style="edgeStyle=orthogonalEdgeStyle;rounded=0;orthogonalLoop=1;jettySize=auto;html=1;exitX=1;exitY=0.5;exitDx=0;exitDy=0;entryX=0;entryY=0.5;entryDx=0;entryDy=0;entryPerimeter=0;" edge="1" parent="1" source="g0_gdnNmpu5xlJmuGTU--4" target="g0_gdnNmpu5xlJmuGTU--6">
          <mxGeometry relative="1" as="geometry" />
        </mxCell>
        <mxCell id="g0_gdnNmpu5xlJmuGTU--17" style="edgeStyle=orthogonalEdgeStyle;rounded=0;orthogonalLoop=1;jettySize=auto;html=1;exitX=1;exitY=0.5;exitDx=0;exitDy=0;entryX=0;entryY=0.5;entryDx=0;entryDy=0;" edge="1" parent="1" source="g0_gdnNmpu5xlJmuGTU--13" target="g0_gdnNmpu5xlJmuGTU--15">
          <mxGeometry relative="1" as="geometry" />
        </mxCell>
        <mxCell id="g0_gdnNmpu5xlJmuGTU--13" value="&lt;span style=&quot;font-size: 15px;&quot;&gt;Faster-Whisper&amp;nbsp;&lt;/span&gt;&lt;div&gt;&lt;span style=&quot;font-size: 15px;&quot;&gt;Text Transcription&lt;/span&gt;&lt;/div&gt;" style="rounded=1;whiteSpace=wrap;html=1;absoluteArcSize=1;arcSize=14;strokeWidth=2;" vertex="1" parent="1">
          <mxGeometry x="-270" y="380" width="140" height="60" as="geometry" />
        </mxCell>
        <mxCell id="g0_gdnNmpu5xlJmuGTU--19" style="edgeStyle=orthogonalEdgeStyle;rounded=0;orthogonalLoop=1;jettySize=auto;html=1;exitX=1;exitY=0.5;exitDx=0;exitDy=0;entryX=0;entryY=0.5;entryDx=0;entryDy=0;" edge="1" parent="1" source="g0_gdnNmpu5xlJmuGTU--15" target="g0_gdnNmpu5xlJmuGTU--18">
          <mxGeometry relative="1" as="geometry" />
        </mxCell>
        <mxCell id="g0_gdnNmpu5xlJmuGTU--39" style="edgeStyle=orthogonalEdgeStyle;rounded=0;orthogonalLoop=1;jettySize=auto;html=1;exitX=0.5;exitY=1;exitDx=0;exitDy=0;entryX=0;entryY=0.5;entryDx=0;entryDy=0;" edge="1" parent="1" source="g0_gdnNmpu5xlJmuGTU--15" target="g0_gdnNmpu5xlJmuGTU--32">
          <mxGeometry relative="1" as="geometry" />
        </mxCell>
        <mxCell id="g0_gdnNmpu5xlJmuGTU--15" value="&lt;span style=&quot;font-size: 15px;&quot;&gt;Routing Agent&lt;/span&gt;" style="rounded=1;whiteSpace=wrap;html=1;absoluteArcSize=1;arcSize=14;strokeWidth=2;" vertex="1" parent="1">
          <mxGeometry x="-100" y="317.5" width="120" height="60" as="geometry" />
        </mxCell>
        <mxCell id="g0_gdnNmpu5xlJmuGTU--25" style="edgeStyle=orthogonalEdgeStyle;rounded=0;orthogonalLoop=1;jettySize=auto;html=1;exitX=1;exitY=0.25;exitDx=0;exitDy=0;entryX=0;entryY=0.5;entryDx=0;entryDy=0;" edge="1" parent="1" source="g0_gdnNmpu5xlJmuGTU--18" target="g0_gdnNmpu5xlJmuGTU--21">
          <mxGeometry relative="1" as="geometry" />
        </mxCell>
        <mxCell id="g0_gdnNmpu5xlJmuGTU--26" style="edgeStyle=orthogonalEdgeStyle;rounded=0;orthogonalLoop=1;jettySize=auto;html=1;exitX=1;exitY=0.5;exitDx=0;exitDy=0;entryX=0;entryY=0.5;entryDx=0;entryDy=0;" edge="1" parent="1" source="g0_gdnNmpu5xlJmuGTU--18" target="g0_gdnNmpu5xlJmuGTU--23">
          <mxGeometry relative="1" as="geometry" />
        </mxCell>
        <mxCell id="g0_gdnNmpu5xlJmuGTU--27" style="edgeStyle=orthogonalEdgeStyle;rounded=0;orthogonalLoop=1;jettySize=auto;html=1;exitX=1;exitY=0.75;exitDx=0;exitDy=0;entryX=0;entryY=0.5;entryDx=0;entryDy=0;" edge="1" parent="1" source="g0_gdnNmpu5xlJmuGTU--18" target="g0_gdnNmpu5xlJmuGTU--22">
          <mxGeometry relative="1" as="geometry">
            <Array as="points">
              <mxPoint x="210" y="358" />
              <mxPoint x="210" y="453" />
            </Array>
          </mxGeometry>
        </mxCell>
        <mxCell id="g0_gdnNmpu5xlJmuGTU--18" value="Action Input" style="shape=parallelogram;html=1;strokeWidth=2;perimeter=parallelogramPerimeter;whiteSpace=wrap;rounded=1;arcSize=12;size=0.23;fontSize=15;" vertex="1" parent="1">
          <mxGeometry x="60" y="317.5" width="140" height="60" as="geometry" />
        </mxCell>
        <mxCell id="g0_gdnNmpu5xlJmuGTU--31" style="edgeStyle=orthogonalEdgeStyle;rounded=0;orthogonalLoop=1;jettySize=auto;html=1;exitX=1;exitY=0.5;exitDx=0;exitDy=0;entryX=0;entryY=0.25;entryDx=0;entryDy=0;" edge="1" parent="1" source="g0_gdnNmpu5xlJmuGTU--21" target="g0_gdnNmpu5xlJmuGTU--28">
          <mxGeometry relative="1" as="geometry" />
        </mxCell>
        <mxCell id="g0_gdnNmpu5xlJmuGTU--21" value="&lt;span style=&quot;font-size: 15px;&quot;&gt;Execute Simple Query&lt;/span&gt;" style="rounded=1;whiteSpace=wrap;html=1;absoluteArcSize=1;arcSize=14;strokeWidth=2;" vertex="1" parent="1">
          <mxGeometry x="240" y="240" width="120" height="60" as="geometry" />
        </mxCell>
        <mxCell id="g0_gdnNmpu5xlJmuGTU--40" style="edgeStyle=orthogonalEdgeStyle;rounded=0;orthogonalLoop=1;jettySize=auto;html=1;exitX=0.5;exitY=1;exitDx=0;exitDy=0;entryX=0.5;entryY=0;entryDx=0;entryDy=0;" edge="1" parent="1" source="g0_gdnNmpu5xlJmuGTU--22" target="g0_gdnNmpu5xlJmuGTU--32">
          <mxGeometry relative="1" as="geometry" />
        </mxCell>
        <mxCell id="g0_gdnNmpu5xlJmuGTU--22" value="&lt;span style=&quot;font-size: 15px;&quot;&gt;Execute Summary Query&lt;/span&gt;" style="rounded=1;whiteSpace=wrap;html=1;absoluteArcSize=1;arcSize=14;strokeWidth=2;" vertex="1" parent="1">
          <mxGeometry x="240" y="422.5" width="120" height="60" as="geometry" />
        </mxCell>
        <mxCell id="g0_gdnNmpu5xlJmuGTU--30" style="edgeStyle=orthogonalEdgeStyle;rounded=0;orthogonalLoop=1;jettySize=auto;html=1;exitX=1;exitY=0.5;exitDx=0;exitDy=0;entryX=0;entryY=0.75;entryDx=0;entryDy=0;" edge="1" parent="1" source="g0_gdnNmpu5xlJmuGTU--23" target="g0_gdnNmpu5xlJmuGTU--28">
          <mxGeometry relative="1" as="geometry" />
        </mxCell>
        <mxCell id="g0_gdnNmpu5xlJmuGTU--23" value="&lt;span style=&quot;font-size: 15px;&quot;&gt;Execute Research Query&lt;/span&gt;" style="rounded=1;whiteSpace=wrap;html=1;absoluteArcSize=1;arcSize=14;strokeWidth=2;" vertex="1" parent="1">
          <mxGeometry x="240" y="330" width="120" height="60" as="geometry" />
        </mxCell>
        <mxCell id="g0_gdnNmpu5xlJmuGTU--37" style="edgeStyle=orthogonalEdgeStyle;rounded=0;orthogonalLoop=1;jettySize=auto;html=1;exitX=0.5;exitY=1;exitDx=0;exitDy=0;entryX=0.5;entryY=0;entryDx=0;entryDy=0;" edge="1" parent="1" source="g0_gdnNmpu5xlJmuGTU--28" target="g0_gdnNmpu5xlJmuGTU--36">
          <mxGeometry relative="1" as="geometry" />
        </mxCell>
        <mxCell id="g0_gdnNmpu5xlJmuGTU--44" style="edgeStyle=orthogonalEdgeStyle;rounded=0;orthogonalLoop=1;jettySize=auto;html=1;exitX=1;exitY=0.5;exitDx=0;exitDy=0;entryX=0;entryY=0.5;entryDx=0;entryDy=0;" edge="1" parent="1" source="g0_gdnNmpu5xlJmuGTU--28" target="g0_gdnNmpu5xlJmuGTU--43">
          <mxGeometry relative="1" as="geometry" />
        </mxCell>
        <mxCell id="g0_gdnNmpu5xlJmuGTU--28" value="&lt;span&gt;ContextChatEngine&lt;/span&gt;" style="rounded=1;whiteSpace=wrap;html=1;absoluteArcSize=1;arcSize=14;strokeWidth=2;fontSize=15;" vertex="1" parent="1">
          <mxGeometry x="430" y="290" width="175" height="60" as="geometry" />
        </mxCell>
        <mxCell id="g0_gdnNmpu5xlJmuGTU--32" value="SimpleChatEngine" style="rounded=1;whiteSpace=wrap;html=1;absoluteArcSize=1;arcSize=14;strokeWidth=2;fontSize=15;" vertex="1" parent="1">
          <mxGeometry x="212.5" y="525" width="175" height="60" as="geometry" />
        </mxCell>
        <mxCell id="g0_gdnNmpu5xlJmuGTU--38" style="edgeStyle=orthogonalEdgeStyle;rounded=0;orthogonalLoop=1;jettySize=auto;html=1;exitX=0.5;exitY=1;exitDx=0;exitDy=0;entryX=1;entryY=0.5;entryDx=0;entryDy=0;" edge="1" parent="1" source="g0_gdnNmpu5xlJmuGTU--36" target="g0_gdnNmpu5xlJmuGTU--32">
          <mxGeometry relative="1" as="geometry" />
        </mxCell>
        <mxCell id="g0_gdnNmpu5xlJmuGTU--36" value="Chat History" style="rounded=1;whiteSpace=wrap;html=1;absoluteArcSize=1;arcSize=14;strokeWidth=2;fontSize=15;" vertex="1" parent="1">
          <mxGeometry x="430" y="422.5" width="175" height="60" as="geometry" />
        </mxCell>
        <mxCell id="g0_gdnNmpu5xlJmuGTU--41" value="&lt;font style=&quot;font-size: 15px;&quot;&gt;Markdown&amp;nbsp;&lt;/font&gt;&lt;div&gt;&lt;font style=&quot;font-size: 15px;&quot;&gt;Summary&lt;/font&gt;&lt;/div&gt;" style="strokeWidth=2;html=1;shape=mxgraph.flowchart.stored_data;whiteSpace=wrap;" vertex="1" parent="1">
          <mxGeometry x="220" y="630" width="160" height="60" as="geometry" />
        </mxCell>
        <mxCell id="g0_gdnNmpu5xlJmuGTU--42" style="edgeStyle=orthogonalEdgeStyle;rounded=0;orthogonalLoop=1;jettySize=auto;html=1;exitX=0.5;exitY=1;exitDx=0;exitDy=0;entryX=0.5;entryY=0;entryDx=0;entryDy=0;entryPerimeter=0;" edge="1" parent="1" source="g0_gdnNmpu5xlJmuGTU--32" target="g0_gdnNmpu5xlJmuGTU--41">
          <mxGeometry relative="1" as="geometry" />
        </mxCell>
        <mxCell id="g0_gdnNmpu5xlJmuGTU--50" style="edgeStyle=orthogonalEdgeStyle;rounded=0;orthogonalLoop=1;jettySize=auto;html=1;exitX=1;exitY=0.5;exitDx=0;exitDy=0;entryX=0;entryY=0.5;entryDx=0;entryDy=0;" edge="1" parent="1" source="g0_gdnNmpu5xlJmuGTU--43" target="g0_gdnNmpu5xlJmuGTU--49">
          <mxGeometry relative="1" as="geometry" />
        </mxCell>
        <mxCell id="g0_gdnNmpu5xlJmuGTU--43" value="Structured Response" style="shape=parallelogram;html=1;strokeWidth=2;perimeter=parallelogramPerimeter;whiteSpace=wrap;rounded=1;arcSize=12;size=0.23;fontSize=15;" vertex="1" parent="1">
          <mxGeometry x="650" y="290" width="140" height="60" as="geometry" />
        </mxCell>
        <mxCell id="g0_gdnNmpu5xlJmuGTU--59" style="edgeStyle=orthogonalEdgeStyle;rounded=0;orthogonalLoop=1;jettySize=auto;html=1;exitX=1;exitY=0.25;exitDx=0;exitDy=0;entryX=0;entryY=0.5;entryDx=0;entryDy=0;" edge="1" parent="1" source="g0_gdnNmpu5xlJmuGTU--45" target="g0_gdnNmpu5xlJmuGTU--1">
          <mxGeometry relative="1" as="geometry" />
        </mxCell>
        <mxCell id="g0_gdnNmpu5xlJmuGTU--60" style="edgeStyle=orthogonalEdgeStyle;rounded=0;orthogonalLoop=1;jettySize=auto;html=1;exitX=1;exitY=0.75;exitDx=0;exitDy=0;entryX=0;entryY=0.5;entryDx=0;entryDy=0;" edge="1" parent="1" source="g0_gdnNmpu5xlJmuGTU--45" target="g0_gdnNmpu5xlJmuGTU--2">
          <mxGeometry relative="1" as="geometry">
            <Array as="points">
              <mxPoint x="-450" y="362" />
              <mxPoint x="-450" y="410" />
            </Array>
          </mxGeometry>
        </mxCell>
        <mxCell id="g0_gdnNmpu5xlJmuGTU--45" value="&lt;span style=&quot;font-size: 15px;&quot;&gt;Gradio Multimodal Textbox&lt;/span&gt;" style="rounded=1;whiteSpace=wrap;html=1;absoluteArcSize=1;arcSize=14;strokeWidth=2;" vertex="1" parent="1">
          <mxGeometry x="-600" y="317.5" width="120" height="60" as="geometry" />
        </mxCell>
        <mxCell id="g0_gdnNmpu5xlJmuGTU--49" value="&lt;span style=&quot;font-size: 15px;&quot;&gt;Gradio Chatbot&lt;/span&gt;" style="rounded=1;whiteSpace=wrap;html=1;absoluteArcSize=1;arcSize=14;strokeWidth=2;" vertex="1" parent="1">
          <mxGeometry x="827" y="290" width="120" height="60" as="geometry" />
        </mxCell>
        <mxCell id="g0_gdnNmpu5xlJmuGTU--57" style="edgeStyle=orthogonalEdgeStyle;rounded=0;orthogonalLoop=1;jettySize=auto;html=1;exitX=1;exitY=0.5;exitDx=0;exitDy=0;entryX=0;entryY=0.5;entryDx=0;entryDy=0;" edge="1" parent="1" source="g0_gdnNmpu5xlJmuGTU--56" target="g0_gdnNmpu5xlJmuGTU--3">
          <mxGeometry relative="1" as="geometry" />
        </mxCell>
        <mxCell id="g0_gdnNmpu5xlJmuGTU--56" value="&lt;span style=&quot;font-size: 15px;&quot;&gt;Gradio PDF&lt;/span&gt;" style="rounded=1;whiteSpace=wrap;html=1;absoluteArcSize=1;arcSize=14;strokeWidth=2;" vertex="1" parent="1">
          <mxGeometry x="-120" y="90" width="120" height="60" as="geometry" />
        </mxCell>
        <mxCell id="g0_gdnNmpu5xlJmuGTU--62" style="edgeStyle=orthogonalEdgeStyle;rounded=0;orthogonalLoop=1;jettySize=auto;html=1;exitX=0.5;exitY=1;exitDx=0;exitDy=0;entryX=0.5;entryY=0;entryDx=0;entryDy=0;" edge="1" parent="1" source="g0_gdnNmpu5xlJmuGTU--61" target="g0_gdnNmpu5xlJmuGTU--15">
          <mxGeometry relative="1" as="geometry" />
        </mxCell>
        <mxCell id="g0_gdnNmpu5xlJmuGTU--61" value="&lt;span style=&quot;font-size: 15px;&quot;&gt;Ollama&lt;/span&gt;&lt;div&gt;&lt;span style=&quot;font-size: 15px;&quot;&gt;Gemma 3n&lt;/span&gt;&lt;/div&gt;" style="rounded=1;whiteSpace=wrap;html=1;absoluteArcSize=1;arcSize=14;strokeWidth=2;" vertex="1" parent="1">
          <mxGeometry x="-100" y="210" width="120" height="60" as="geometry" />
        </mxCell>
        <mxCell id="g0_gdnNmpu5xlJmuGTU--64" style="edgeStyle=orthogonalEdgeStyle;rounded=0;orthogonalLoop=1;jettySize=auto;html=1;exitX=0.5;exitY=1;exitDx=0;exitDy=0;entryX=0.75;entryY=0;entryDx=0;entryDy=0;" edge="1" parent="1" source="g0_gdnNmpu5xlJmuGTU--63" target="g0_gdnNmpu5xlJmuGTU--28">
          <mxGeometry relative="1" as="geometry">
            <Array as="points">
              <mxPoint x="630" y="190" />
              <mxPoint x="561" y="190" />
            </Array>
          </mxGeometry>
        </mxCell>
        <mxCell id="g0_gdnNmpu5xlJmuGTU--63" value="&lt;span style=&quot;font-size: 15px;&quot;&gt;Ollama&lt;/span&gt;&lt;div&gt;&lt;span style=&quot;font-size: 15px;&quot;&gt;Gemma 3n&lt;/span&gt;&lt;/div&gt;" style="rounded=1;whiteSpace=wrap;html=1;absoluteArcSize=1;arcSize=14;strokeWidth=2;" vertex="1" parent="1">
          <mxGeometry x="570" y="90" width="120" height="60" as="geometry" />
        </mxCell>
        <mxCell id="g0_gdnNmpu5xlJmuGTU--68" style="edgeStyle=orthogonalEdgeStyle;rounded=0;orthogonalLoop=1;jettySize=auto;html=1;exitX=0.5;exitY=1;exitDx=0;exitDy=0;entryX=0.5;entryY=0;entryDx=0;entryDy=0;" edge="1" parent="1" source="g0_gdnNmpu5xlJmuGTU--66" target="g0_gdnNmpu5xlJmuGTU--4">
          <mxGeometry relative="1" as="geometry" />
        </mxCell>
        <mxCell id="g0_gdnNmpu5xlJmuGTU--66" value="&lt;span style=&quot;font-size: 15px;&quot;&gt;Ollama&lt;/span&gt;&lt;div&gt;&lt;span style=&quot;font-size: 15px;&quot;&gt;bge-m3&lt;/span&gt;&lt;/div&gt;&lt;div&gt;&lt;span style=&quot;font-size: 15px;&quot;&gt;Text Embedding&lt;/span&gt;&lt;/div&gt;" style="rounded=1;whiteSpace=wrap;html=1;absoluteArcSize=1;arcSize=14;strokeWidth=2;" vertex="1" parent="1">
          <mxGeometry x="190" y="-40" width="140" height="70" as="geometry" />
        </mxCell>
      </root>
    </mxGraphModel>
  </diagram>
</mxfile>
